<svg width="259" height="259" viewBox="0 0 259 259" fill="none" xmlns="http://www.w3.org/2000/svg">
<rect x="2" y="2" width="255" height="255" rx="13" fill="#2762BE" stroke="white" stroke-width="4"/>
<path d="M16.49 185.36L29 189.068L29 191.39L19.532 194.018L29 196.808L29.018 199.112L16.49 202.658L16.49 200.48L26.678 197.888L16.49 195.08L16.49 192.776L26.624 190.166L16.49 187.556L16.49 185.36ZM23.996 183.452C23 183.452 22.118 183.248 21.35 182.84C20.582 182.42 19.988 181.856 19.568 181.148C19.136 180.428 18.92 179.636 18.92 178.772C18.92 177.992 19.076 177.314 19.388 176.738C19.688 176.15 20.066 175.682 20.522 175.334L19.082 175.334L19.082 173.264L29 173.264L29 175.334L27.524 175.334C27.992 175.682 28.382 176.156 28.694 176.756C29.006 177.356 29.162 178.04 29.162 178.808C29.162 179.66 28.946 180.44 28.514 181.148C28.07 181.856 27.458 182.42 26.678 182.84C25.886 183.248 24.992 183.452 23.996 183.452ZM24.032 175.334C23.348 175.334 22.754 175.478 22.25 175.766C21.746 176.042 21.362 176.408 21.098 176.864C20.834 177.32 20.702 177.812 20.702 178.34C20.702 178.868 20.834 179.36 21.098 179.816C21.35 180.272 21.728 180.644 22.232 180.932C22.724 181.208 23.312 181.346 23.996 181.346C24.68 181.346 25.28 181.208 25.796 180.932C26.312 180.644 26.708 180.272 26.984 179.816C27.248 179.348 27.38 178.856 27.38 178.34C27.38 177.812 27.248 177.32 26.984 176.864C26.72 176.408 26.336 176.042 25.832 175.766C25.316 175.478 24.716 175.334 24.032 175.334ZM29.162 166.068C29.162 166.848 29.024 167.55 28.748 168.174C28.46 168.786 28.076 169.272 27.596 169.632C27.104 169.992 26.558 170.184 25.958 170.208L25.958 168.084C26.378 168.048 26.732 167.85 27.02 167.49C27.296 167.118 27.434 166.656 27.434 166.104C27.434 165.528 27.326 165.084 27.11 164.772C26.882 164.448 26.594 164.286 26.246 164.286C25.874 164.286 25.598 164.466 25.418 164.826C25.238 165.174 25.04 165.732 24.824 166.5C24.62 167.244 24.422 167.85 24.23 168.318C24.038 168.786 23.744 169.194 23.348 169.542C22.952 169.878 22.43 170.046 21.782 170.046C21.254 170.046 20.774 169.89 20.342 169.578C19.898 169.266 19.55 168.822 19.298 168.246C19.046 167.658 18.92 166.986 18.92 166.23C18.92 165.102 19.208 164.196 19.784 163.512C20.348 162.816 21.122 162.444 22.106 162.396L22.106 164.448C21.662 164.484 21.308 164.664 21.044 164.988C20.78 165.312 20.648 165.75 20.648 166.302C20.648 166.842 20.75 167.256 20.954 167.544C21.158 167.832 21.428 167.976 21.764 167.976C22.028 167.976 22.25 167.88 22.43 167.688C22.61 167.496 22.754 167.262 22.862 166.986C22.958 166.71 23.084 166.302 23.24 165.762C23.432 165.042 23.63 164.454 23.834 163.998C24.026 163.53 24.314 163.128 24.698 162.792C25.082 162.456 25.592 162.282 26.228 162.27C26.792 162.27 27.296 162.426 27.74 162.738C28.184 163.05 28.532 163.494 28.784 164.07C29.036 164.634 29.162 165.3 29.162 166.068ZM18.92 154.023C18.92 153.267 19.082 152.595 19.406 152.007C19.73 151.407 20.21 150.939 20.846 150.603C21.482 150.255 22.25 150.081 23.15 150.081L29 150.081L29 152.115L23.456 152.115C22.568 152.115 21.89 152.337 21.422 152.781C20.942 153.225 20.702 153.831 20.702 154.599C20.702 155.367 20.942 155.979 21.422 156.435C21.89 156.879 22.568 157.101 23.456 157.101L29 157.101L29 159.153L15.68 159.153L15.68 157.101L20.234 157.101C19.814 156.753 19.49 156.315 19.262 155.787C19.034 155.247 18.92 154.659 18.92 154.023ZM23.996 147.248C23 147.248 22.118 147.044 21.35 146.636C20.582 146.216 19.988 145.652 19.568 144.944C19.136 144.224 18.92 143.432 18.92 142.568C18.92 141.788 19.076 141.11 19.388 140.534C19.688 139.946 20.066 139.478 20.522 139.13L19.082 139.13L19.082 137.06L29 137.06L29 139.13L27.524 139.13C27.992 139.478 28.382 139.952 28.694 140.552C29.006 141.152 29.162 141.836 29.162 142.604C29.162 143.456 28.946 144.236 28.514 144.944C28.07 145.652 27.458 146.216 26.678 146.636C25.886 147.044 24.992 147.248 23.996 147.248ZM24.032 139.13C23.348 139.13 22.754 139.274 22.25 139.562C21.746 139.838 21.362 140.204 21.098 140.66C20.834 141.116 20.702 141.608 20.702 142.136C20.702 142.664 20.834 143.156 21.098 143.612C21.35 144.068 21.728 144.44 22.232 144.728C22.724 145.004 23.312 145.142 23.996 145.142C24.68 145.142 25.28 145.004 25.796 144.728C26.312 144.44 26.708 144.068 26.984 143.612C27.248 143.144 27.38 142.652 27.38 142.136C27.38 141.608 27.248 141.116 26.984 140.66C26.72 140.204 26.336 139.838 25.832 139.562C25.316 139.274 24.716 139.13 24.032 139.13ZM20.558 131.412C20.078 131.064 19.688 130.59 19.388 129.99C19.076 129.378 18.92 128.7 18.92 127.956C18.92 127.08 19.13 126.288 19.55 125.58C19.97 124.872 20.57 124.314 21.35 123.906C22.118 123.498 23 123.294 23.996 123.294C24.992 123.294 25.886 123.498 26.678 123.906C27.458 124.314 28.07 124.878 28.514 125.598C28.946 126.306 29.162 127.092 29.162 127.956C29.162 128.724 29.012 129.408 28.712 130.008C28.412 130.596 28.028 131.064 27.56 131.412L29 131.412L29 133.464L15.68 133.464L15.68 131.412L20.558 131.412ZM23.996 125.382C23.312 125.382 22.724 125.526 22.232 125.814C21.728 126.09 21.35 126.462 21.098 126.93C20.834 127.386 20.702 127.878 20.702 128.406C20.702 128.922 20.834 129.414 21.098 129.882C21.362 130.338 21.746 130.71 22.25 130.998C22.754 131.274 23.348 131.412 24.032 131.412C24.716 131.412 25.316 131.274 25.832 130.998C26.336 130.71 26.72 130.338 26.984 129.882C27.248 129.414 27.38 128.922 27.38 128.406C27.38 127.878 27.248 127.386 26.984 126.93C26.708 126.462 26.312 126.09 25.796 125.814C25.28 125.526 24.68 125.382 23.996 125.382ZM15.68 118.313L29 118.313L29 120.365L15.68 120.365L15.68 118.313ZM23.798 105.629C24.17 105.629 24.506 105.653 24.806 105.701L24.806 113.279C25.598 113.219 26.234 112.925 26.714 112.397C27.194 111.869 27.434 111.221 27.434 110.453C27.434 109.349 26.972 108.569 26.048 108.113L26.048 105.899C26.96 106.199 27.71 106.745 28.298 107.537C28.874 108.317 29.162 109.289 29.162 110.453C29.162 111.401 28.952 112.253 28.532 113.009C28.1 113.753 27.5 114.341 26.732 114.773C25.952 115.193 25.052 115.403 24.032 115.403C23.012 115.403 22.118 115.199 21.35 114.791C20.57 114.371 19.97 113.789 19.55 113.045C19.13 112.289 18.92 111.425 18.92 110.453C18.92 109.517 19.124 108.683 19.532 107.951C19.94 107.219 20.516 106.649 21.26 106.241C21.992 105.833 22.838 105.629 23.798 105.629ZM23.15 107.771C22.394 107.783 21.788 108.053 21.332 108.581C20.876 109.109 20.648 109.763 20.648 110.543C20.648 111.251 20.876 111.857 21.332 112.361C21.776 112.865 22.382 113.165 23.15 113.261L23.15 107.771Z" fill="white"/>
<path d="M44 71.1402H179.29V93.9813H44V71.1402Z" fill="#C0C0C0"/>
<path d="M44 93.9813H179.29V224H49C46.2386 224 44 221.761 44 219V93.9813Z" fill="#F1ECEC"/>
<rect x="52.7852" y="79.9252" width="22.8411" height="7.02804" rx="1" fill="#D7D7D7"/>
<circle cx="116.916" cy="82.5607" r="4.39252" fill="#5CBCC9"/>
<circle cx="132.728" cy="82.5607" r="4.39252" fill="#3CC245"/>
<circle cx="148.543" cy="82.5607" r="4.39252" fill="#D74E61"/>
<circle cx="164.355" cy="82.5607" r="4.39252" fill="black"/>
<circle cx="113.402" cy="159.869" r="43.0467" fill="#D1D1D1"/>
<g clip-path="url(#clip0_1346_16)">
<rect x="75.627" y="122.094" width="75.5514" height="75.5514" rx="37.7757" fill="white"/>
<path d="M105.613 162.129C94.936 167.067 76.0889 161.717 68 158.424C78.6773 197.935 103.996 203.697 115.32 201.639C146.381 198.676 157.382 176.534 159 165.833C152.933 164.598 152.933 164.598 149.293 162.129C132.307 149.782 118.96 155.955 105.613 162.129Z" fill="url(#paint0_linear_1346_16)"/>
<path d="M105.613 171.129C94.936 176.067 76.0889 170.717 68 167.424C78.6773 206.935 103.996 212.697 115.32 210.639C146.381 207.676 157.382 185.534 159 174.833C152.933 173.598 152.933 173.598 149.293 171.129C132.307 158.782 118.96 164.955 105.613 171.129Z" fill="url(#paint1_linear_1346_16)"/>
</g>
<path d="M214.429 188.86L179.289 224V93.9813L214.429 59.7196V188.86Z" fill="#D9D9D9"/>
<path d="M214.429 36L179.289 71.1402V93.9813L214.429 59.7196V36Z" fill="#A49898"/>
<path d="M86.1682 36L44 71.1402H179.29L214.43 36H86.1682Z" fill="#8B8282"/>
<path d="M242.51 91.436C242.51 92.768 242.252 93.932 241.736 94.928C241.232 95.936 240.5 96.71 239.54 97.25C238.592 97.802 237.482 98.078 236.21 98.078C234.938 98.078 233.834 97.802 232.898 97.25C231.962 96.71 231.242 95.936 230.738 94.928C230.246 93.932 230 92.768 230 91.436L230 87.35L242.51 87.35L242.51 91.436ZM231.674 91.436C231.674 92.9 232.07 94.022 232.862 94.802C233.654 95.582 234.77 95.972 236.21 95.972C237.662 95.972 238.796 95.582 239.612 94.802C240.428 94.022 240.836 92.9 240.836 91.436L240.836 89.402L231.674 89.402L231.674 91.436ZM235.202 110.102C234.83 110.102 234.494 110.078 234.194 110.03L234.194 102.452C233.402 102.512 232.766 102.806 232.286 103.334C231.806 103.862 231.566 104.51 231.566 105.278C231.566 106.382 232.028 107.162 232.952 107.618L232.952 109.832C232.04 109.532 231.29 108.986 230.702 108.194C230.126 107.414 229.838 106.442 229.838 105.278C229.838 104.33 230.048 103.478 230.468 102.722C230.9 101.978 231.5 101.39 232.268 100.958C233.048 100.538 233.948 100.328 234.968 100.328C235.988 100.328 236.882 100.532 237.65 100.94C238.43 101.36 239.03 101.942 239.45 102.686C239.87 103.442 240.08 104.306 240.08 105.278C240.08 106.214 239.876 107.048 239.468 107.78C239.06 108.512 238.484 109.082 237.74 109.49C237.008 109.898 236.162 110.102 235.202 110.102ZM235.85 107.96C236.606 107.948 237.212 107.678 237.668 107.15C238.124 106.622 238.352 105.968 238.352 105.188C238.352 104.48 238.124 103.874 237.668 103.37C237.224 102.866 236.618 102.566 235.85 102.47L235.85 107.96ZM229.838 116.621C229.838 115.841 229.976 115.139 230.252 114.515C230.54 113.903 230.924 113.417 231.404 113.057C231.896 112.697 232.442 112.505 233.042 112.481L233.042 114.605C232.622 114.641 232.268 114.839 231.98 115.199C231.704 115.571 231.566 116.033 231.566 116.585C231.566 117.161 231.674 117.605 231.89 117.917C232.118 118.241 232.406 118.403 232.754 118.403C233.126 118.403 233.402 118.223 233.582 117.863C233.762 117.515 233.96 116.957 234.176 116.189C234.38 115.445 234.578 114.839 234.77 114.371C234.962 113.903 235.256 113.495 235.652 113.147C236.048 112.811 236.57 112.643 237.218 112.643C237.746 112.643 238.226 112.799 238.658 113.111C239.102 113.423 239.45 113.867 239.702 114.443C239.954 115.031 240.08 115.703 240.08 116.459C240.08 117.587 239.792 118.493 239.216 119.177C238.652 119.873 237.878 120.245 236.894 120.293L236.894 118.241C237.338 118.205 237.692 118.025 237.956 117.701C238.22 117.377 238.352 116.939 238.352 116.387C238.352 115.847 238.25 115.433 238.046 115.145C237.842 114.857 237.572 114.713 237.236 114.713C236.972 114.713 236.75 114.809 236.57 115.001C236.39 115.193 236.246 115.427 236.138 115.703C236.042 115.979 235.916 116.387 235.76 116.927C235.568 117.647 235.37 118.235 235.166 118.691C234.974 119.159 234.686 119.561 234.302 119.897C233.918 120.233 233.408 120.407 232.772 120.419C232.208 120.419 231.704 120.263 231.26 119.951C230.816 119.639 230.468 119.195 230.216 118.619C229.964 118.055 229.838 117.389 229.838 116.621ZM241.232 124.58C241.232 124.208 241.358 123.896 241.61 123.644C241.862 123.392 242.174 123.266 242.546 123.266C242.918 123.266 243.23 123.392 243.482 123.644C243.734 123.896 243.86 124.208 243.86 124.58C243.86 124.94 243.734 125.246 243.482 125.498C243.23 125.75 242.918 125.876 242.546 125.876C242.174 125.876 241.862 125.75 241.61 125.498C241.358 125.246 241.232 124.94 241.232 124.58ZM239.918 125.588L230 125.588L230 123.536L239.918 123.536L239.918 125.588ZM240.08 133.178C240.08 133.946 239.924 134.624 239.612 135.212C239.312 135.812 238.934 136.28 238.478 136.616L239.918 136.616L239.918 138.686L229.838 138.686C228.926 138.686 228.116 138.494 227.408 138.11C226.688 137.726 226.124 137.168 225.716 136.436C225.308 135.716 225.104 134.852 225.104 133.844C225.104 132.5 225.422 131.384 226.058 130.496C226.682 129.608 227.534 129.104 228.614 128.984L228.614 131.018C228.098 131.174 227.684 131.504 227.372 132.008C227.048 132.524 226.886 133.136 226.886 133.844C226.886 134.672 227.138 135.338 227.642 135.842C228.146 136.358 228.878 136.616 229.838 136.616L231.494 136.616C231.026 136.268 230.63 135.794 230.306 135.194C229.994 134.606 229.838 133.934 229.838 133.178C229.838 132.314 230.054 131.522 230.486 130.802C230.93 130.094 231.542 129.53 232.322 129.11C233.114 128.702 234.008 128.498 235.004 128.498C236 128.498 236.882 128.702 237.65 129.11C238.418 129.53 239.012 130.094 239.432 130.802C239.864 131.522 240.08 132.314 240.08 133.178ZM234.968 136.616C235.652 136.616 236.246 136.472 236.75 136.184C237.254 135.908 237.638 135.542 237.902 135.086C238.166 134.63 238.298 134.138 238.298 133.61C238.298 133.082 238.166 132.59 237.902 132.134C237.65 131.678 237.272 131.306 236.768 131.018C236.276 130.742 235.688 130.604 235.004 130.604C234.32 130.604 233.72 130.742 233.204 131.018C232.688 131.306 232.292 131.678 232.016 132.134C231.752 132.602 231.62 133.094 231.62 133.61C231.62 134.138 231.752 134.63 232.016 135.086C232.28 135.542 232.664 135.908 233.168 136.184C233.684 136.472 234.284 136.616 234.968 136.616ZM240.08 147.286C240.08 148.066 239.918 148.762 239.594 149.374C239.27 149.998 238.79 150.484 238.154 150.832C237.518 151.18 236.75 151.354 235.85 151.354L230 151.354L230 149.32L235.544 149.32C236.432 149.32 237.11 149.098 237.578 148.654C238.058 148.21 238.298 147.604 238.298 146.836C238.298 146.068 238.058 145.456 237.578 145C237.11 144.556 236.432 144.334 235.544 144.334L230 144.334L230 142.282L239.918 142.282L239.918 144.334L238.784 144.334C239.192 144.67 239.51 145.096 239.738 145.612C239.966 146.14 240.08 146.698 240.08 147.286Z" fill="white"/>
<defs>
<linearGradient id="paint0_linear_1346_16" x1="113.5" y1="155" x2="113.5" y2="202" gradientUnits="userSpaceOnUse">
<stop stop-color="#35CAF9"/>
<stop offset="1" stop-color="#2CD3D3" stop-opacity="0"/>
</linearGradient>
<linearGradient id="paint1_linear_1346_16" x1="113.5" y1="164" x2="113.5" y2="211" gradientUnits="userSpaceOnUse">
<stop stop-color="#35CAF9"/>
<stop offset="1" stop-color="#2CD3D3" stop-opacity="0"/>
</linearGradient>
<clipPath id="clip0_1346_16">
<rect x="75.627" y="122.094" width="75.5514" height="75.5514" rx="37.7757" fill="white"/>
</clipPath>
</defs>
</svg>
